<?xml version="1.0" encoding="UTF-8" standalone="no"?>
<svg width="33px" height="28px" viewBox="0 0 33 28" version="1.1" xmlns="http://www.w3.org/2000/svg" xmlns:xlink="http://www.w3.org/1999/xlink">
    <!-- Generator: Sketch 3.7.1 (28215) - http://www.bohemiancoding.com/sketch -->
    <title>volume_0</title>
    <desc>Created with Sketch.</desc>
    <defs></defs>
    <g id="Page-1" stroke="none" stroke-width="1" fill="#FFFFFF">
        <path d="M12.6388763,20.2642446 L22.4185499,27.9450706 C22.586976,28.0766223 22.8321405,27.9570298 22.8321405,27.7437566 L22.8321405,0.256425607 C22.8321405,0.0401625705 22.581993,-0.0784332884 22.4145635,0.0581014399 L12.6388763,8.04289154 L12.6388763,20.2642446 Z M5.98814012,20.3606162 L9.25201775,20.3606162 C9.37260682,20.3606162 9.4712706,20.2619524 9.4712706,20.1403668 L9.4712706,8.26284201 C9.4712706,8.14225294 9.37260682,8.04259256 9.25201775,8.04259256 L5.98814012,8.04259256 C2.70233721,8.04259256 0.0135,10.7314298 0.0135,14.0182293 L0.0135,14.3859761 C0.0135,17.671779 2.70233721,20.3606162 5.98814012,20.3606162 Z M32.9999998,11.1716677 L31.8281657,9.99983366 L29.0072243,12.8207751 L26.1853341,9.99983366 L25.0135,11.1716677 L27.8344414,13.9926091 L25.0135,16.8135505 L26.1853341,17.9863334 L29.0072243,15.1644432 L31.8281657,17.9863334 L32.9999998,16.8135505 L30.1790584,13.9926091 L32.9999998,11.1716677 Z" id="volume_0" fill="#FFFFFF"></path>
    </g>
</svg>
