<?xml version="1.0" encoding="UTF-8" standalone="no"?>
<svg width="36px" height="28px" viewBox="0 0 36 28" version="1.1" xmlns="http://www.w3.org/2000/svg" xmlns:xlink="http://www.w3.org/1999/xlink">
    <!-- Generator: Sketch 3.7.1 (28215) - http://www.bohemiancoding.com/sketch -->
    <title>full_screen</title>
    <desc>Created with Sketch.</desc>
    <defs></defs>
    <g id="Page-1" stroke="none" stroke-width="1" fill="#FFFFFF" fill-rule="evenodd">
        <path d="M9.99552734,0.00807964219 L9.99552734,4.00649257 L3.99841293,4.00649257 L3.99841293,10.003607 L0,10.003607 L0.0151493291,0.512047324 C0.0151493291,0.229259847 0.244409176,0 0.527196653,0 L9.99552734,0.00807964219 Z M0,18.0004328 L3.99841293,18.0004328 L3.99841293,23.9985572 L9.99552734,23.9985572 L9.99552734,27.9969701 L0.512047324,27.9969701 C0.229259847,27.9969701 0,27.7677103 0,27.4849228 L0,18.0004328 Z M25.9891791,27.9969701 L25.9891791,23.9985572 L31.9862935,23.9985572 L31.9862935,18.0004328 L35.9847064,18.0004328 L35.9978358,27.4879527 C35.9988458,27.7707402 35.768576,28 35.4857885,28 L25.9891791,27.9969701 Z M31.9862935,10.003607 L31.9862935,4.00649257 L25.9891791,4.00649257 L25.9891791,0.00807964219 L35.4857885,0 C35.768576,0 35.9988458,0.230269802 35.9978358,0.513057279 L35.9847064,10.003607 L31.9862935,10.003607 Z" id="full_screen" fill="#FFFFFF"></path>
    </g>
</svg>
